<svg width="973" height="851" viewBox="0 0 973 851" fill="none" xmlns="http://www.w3.org/2000/svg">
<g filter="url(#filter0_d_405_4)">
<g clip-path="url(#clip0_405_4)">
<path fill-rule="evenodd" clip-rule="evenodd" d="M340.458 463.428C256.626 439.936 197.307 394.596 181.847 333.182C166.388 271.768 197.615 205.519 261.059 148.016C324.478 90.5364 419.928 41.9669 532.387 15.9975C644.846 -9.97188 752.918 -8.40029 836.718 15.0832C920.551 38.5759 979.869 83.9157 995.329 145.33C1010.79 206.744 979.561 272.993 916.117 330.495C852.698 387.975 757.248 436.545 644.789 462.514C532.33 488.483 424.258 486.912 340.458 463.428ZM645.043 463.522C419.825 515.53 211.974 457.284 180.795 333.425C149.616 209.566 306.915 66.9977 532.133 14.9896C757.351 -37.0185 965.202 21.228 996.381 145.087C1027.56 268.946 870.261 411.514 645.043 463.522Z" fill="#8194E0" fill-opacity="0.11"/>
<path fill-rule="evenodd" clip-rule="evenodd" d="M351.623 507.778C267.79 484.285 208.471 438.945 193.012 377.531C177.552 316.117 208.78 249.868 272.223 192.366C335.643 134.886 431.092 86.3163 543.551 60.3469C656.01 34.3775 764.082 35.9491 847.882 59.4325C931.715 82.9252 991.033 128.265 1006.49 189.679C1021.95 251.093 990.725 317.342 927.281 374.845C863.862 432.325 768.412 480.894 655.953 506.863C543.494 532.833 435.423 531.261 351.623 507.778ZM656.207 507.871C430.989 559.879 223.138 501.633 191.959 377.774C160.78 253.915 318.08 111.347 543.297 59.339C768.515 7.33083 976.366 65.5773 1007.55 189.436C1038.72 313.295 881.425 455.863 656.207 507.871Z" fill="#8194E0" fill-opacity="0.11"/>
<path fill-rule="evenodd" clip-rule="evenodd" d="M344.924 545.586C260.805 522.158 201.312 476.858 185.853 415.446C170.393 354.034 201.795 287.745 265.526 230.175C329.231 172.629 425.076 123.968 537.971 97.8975C650.866 71.8272 759.333 73.3078 843.42 96.7258C927.539 120.153 987.032 165.453 1002.49 226.865C1017.95 288.277 986.549 354.567 922.818 412.136C859.113 469.683 763.269 518.344 650.373 544.414C537.478 570.484 429.011 569.004 344.924 545.586ZM650.627 545.422C424.537 597.631 215.98 539.548 184.8 415.689C153.621 291.83 311.628 149.099 537.717 96.8895C763.807 44.6801 972.364 102.763 1003.54 226.622C1034.72 350.481 876.716 493.212 650.627 545.422Z" fill="#8194E0" fill-opacity="0.11"/>
<path fill-rule="evenodd" clip-rule="evenodd" d="M217.263 650.16C124.492 624.387 58.8614 574.505 41.8258 506.831C24.7902 439.158 59.4754 366.11 129.791 302.677C200.08 239.268 305.81 185.638 430.33 156.883C554.85 128.129 674.48 129.718 767.217 155.481C859.988 181.253 925.618 231.135 942.654 298.809C959.689 366.483 925.004 439.53 854.689 502.963C784.399 566.373 678.67 620.002 554.15 648.757C429.63 677.512 310 675.923 217.263 650.16ZM554.403 649.765C305.065 707.343 75.1055 643.458 40.7734 507.074C6.44137 370.691 180.738 213.453 430.076 155.875C679.414 98.2973 909.374 162.182 943.706 298.566C978.038 434.95 803.741 592.187 554.403 649.765Z" fill="#8194E0" fill-opacity="0.11"/>
<path fill-rule="evenodd" clip-rule="evenodd" d="M203.729 554.098C111.245 528.261 45.7886 478.339 28.7526 410.663C11.7165 342.987 46.2275 269.981 116.256 206.615C186.26 143.271 291.595 89.7332 415.678 61.0794C539.761 32.4256 658.996 34.1055 751.447 59.9342C843.931 85.7721 909.387 135.694 926.423 203.37C943.459 271.045 908.949 344.052 838.92 407.418C768.916 470.761 663.581 524.299 539.498 552.953C415.415 581.607 296.18 579.927 203.729 554.098ZM539.752 553.961C291.285 611.338 62.0322 547.29 27.7002 410.906C-6.63185 274.522 166.958 117.448 415.424 60.0715C663.89 2.69477 893.144 66.7427 927.476 203.127C961.808 339.51 788.218 496.584 539.752 553.961Z" fill="#8194E0" fill-opacity="0.11"/>
<path fill-rule="evenodd" clip-rule="evenodd" d="M227.87 710.636C135.194 684.841 69.622 634.946 52.5863 567.272C35.5505 499.597 70.1777 426.564 140.397 363.153C210.592 299.765 316.19 246.166 440.564 217.445C564.938 188.724 684.437 190.343 777.078 216.128C869.754 241.923 935.326 291.818 952.362 359.492C969.398 427.167 934.77 500.2 864.551 563.611C794.356 626.999 688.758 680.598 564.384 709.319C440.01 738.04 320.511 736.421 227.87 710.636ZM564.638 710.327C315.59 767.838 85.866 703.899 51.5339 567.515C17.2019 431.131 191.263 273.948 440.31 216.437C689.358 158.926 919.082 222.866 953.414 359.249C987.746 495.633 813.685 652.816 564.638 710.327Z" fill="#8194E0" fill-opacity="0.11"/>
<path fill-rule="evenodd" clip-rule="evenodd" d="M160.423 509.705C67.8436 483.889 2.32958 433.981 -14.7063 366.306C-31.7422 298.631 2.82684 225.611 72.9512 162.222C143.05 98.8567 248.516 45.288 372.745 16.6006C496.974 -12.0868 616.341 -10.4372 708.887 15.3696C801.467 41.1857 866.981 91.0943 884.017 158.769C901.053 226.444 866.484 299.464 796.359 362.853C726.26 426.218 620.794 479.787 496.565 508.474C372.336 537.162 252.97 535.512 160.423 509.705ZM496.819 509.482C248.062 566.926 18.5734 502.933 -15.7587 366.549C-50.0907 230.165 123.735 73.0364 372.492 15.5926C621.248 -41.8512 850.737 22.1424 885.069 158.526C919.401 294.91 745.576 452.039 496.819 509.482Z" fill="#8194E0" fill-opacity="0.11"/>
<path fill-rule="evenodd" clip-rule="evenodd" d="M226.489 755.75C134.101 729.89 68.7031 679.955 51.6669 612.278C34.6307 544.602 69.0836 471.609 139.017 408.265C208.925 344.944 314.128 291.437 438.066 262.816C562.004 234.196 681.107 235.906 773.463 261.757C865.851 287.617 931.249 337.552 948.285 405.228C965.321 472.904 930.869 545.897 860.935 609.241C791.027 672.562 685.824 726.07 561.886 754.69C437.948 783.31 318.845 781.6 226.489 755.75ZM562.14 755.698C313.964 813.008 84.9466 748.905 50.6145 612.522C16.2825 476.138 189.637 319.118 437.812 261.808C685.988 204.499 915.006 268.601 949.338 404.985C983.67 541.369 810.315 698.389 562.14 755.698Z" fill="#8194E0" fill-opacity="0.11"/>
<path fill-rule="evenodd" clip-rule="evenodd" d="M226.93 800.442C134.35 774.626 68.8357 724.717 51.7998 657.042C34.7639 589.367 69.3329 516.347 139.457 452.959C209.556 389.593 315.023 336.024 439.251 307.337C563.48 278.65 682.847 280.299 775.393 306.106C867.973 331.922 933.487 381.831 950.523 449.506C967.559 517.181 932.99 590.201 862.866 653.589C792.767 716.955 687.3 770.523 563.071 799.211C438.842 827.898 319.476 826.249 226.93 800.442ZM563.325 800.219C314.568 857.662 85.0795 793.669 50.7474 657.285C16.4154 520.901 190.241 363.773 438.998 306.329C687.754 248.885 917.243 312.879 951.575 449.263C985.907 585.646 812.082 742.775 563.325 800.219Z" fill="#8194E0" fill-opacity="0.11"/>
<path fill-rule="evenodd" clip-rule="evenodd" d="M226.755 845.277C134.367 819.417 68.969 769.482 51.9328 701.806C34.8966 634.129 69.3495 561.136 139.283 497.793C209.191 434.471 314.394 380.964 438.332 352.344C562.27 323.723 681.373 325.434 773.729 351.284C866.117 377.144 931.515 427.079 948.551 494.755C965.587 562.431 931.135 635.425 861.201 698.768C791.293 762.089 686.09 815.597 562.152 844.217C438.214 872.837 319.111 871.127 226.755 845.277ZM562.406 845.225C314.23 902.535 85.2125 838.432 50.8804 702.049C16.5484 565.665 189.903 408.645 438.078 351.336C686.254 294.026 915.272 358.128 949.604 494.512C983.936 630.896 810.581 787.916 562.406 845.225Z" fill="#8194E0" fill-opacity="0.11"/>
<path fill-rule="evenodd" clip-rule="evenodd" d="M225.836 890.283C133.447 864.424 68.0496 814.488 51.0134 746.812C33.9772 679.136 68.43 606.143 138.363 542.799C208.272 479.478 313.475 425.97 437.413 397.35C561.35 368.73 680.453 370.44 772.809 396.291C865.198 422.15 930.596 472.086 947.632 539.762C964.668 607.438 930.215 680.431 860.282 743.775C790.373 807.096 685.17 860.604 561.233 889.224C437.295 917.844 318.192 916.134 225.836 890.283ZM561.486 890.232C313.311 947.541 84.2931 883.439 49.961 747.055C15.629 610.671 188.983 453.652 437.159 396.342C685.334 339.033 914.352 403.135 948.684 539.519C983.016 675.903 809.662 832.922 561.486 890.232Z" fill="#8194E0" fill-opacity="0.11"/>
</g>
</g>
<defs>
<filter id="filter0_d_405_4" x="0" y="0" width="973" height="851" filterUnits="userSpaceOnUse" color-interpolation-filters="sRGB">
<feFlood flood-opacity="0" result="BackgroundImageFix"/>
<feColorMatrix in="SourceAlpha" type="matrix" values="0 0 0 0 0 0 0 0 0 0 0 0 0 0 0 0 0 0 127 0" result="hardAlpha"/>
<feOffset dy="4"/>
<feGaussianBlur stdDeviation="2"/>
<feComposite in2="hardAlpha" operator="out"/>
<feColorMatrix type="matrix" values="0 0 0 0 0 0 0 0 0 0 0 0 0 0 0 0 0 0 0.25 0"/>
<feBlend mode="normal" in2="BackgroundImageFix" result="effect1_dropShadow_405_4"/>
<feBlend mode="normal" in="SourceGraphic" in2="effect1_dropShadow_405_4" result="shape"/>
</filter>
<clipPath id="clip0_405_4">
<rect width="965" height="843" rx="15" transform="matrix(-1 0 0 1 969 0)" fill="white"/>
</clipPath>
</defs>
</svg>
